<!--?xml version="1.0" standalone="no"?-->
              <svg id="sw-js-blob-svg" viewBox="0 0 100 100" xmlns="http://www.w3.org/2000/svg" version="1.1">
                    <defs> 
                        <linearGradient id="sw-gradient" x1="0" x2="1" y1="1" y2="0">
                            <stop id="stop1" stop-color="rgba(20, 184, 166, 1)" offset="0%"></stop>
                            <stop id="stop2" stop-color="rgba(6, 182, 212, 1)" offset="100%"></stop>
                        </linearGradient>
                    </defs>
                <path fill="none" d="M8,-11.6C13.3,-7.2,22.5,-8.8,27.3,-6C32.1,-3.3,32.6,3.7,31.6,11.4C30.6,19,28.3,27.3,22.8,30.3C17.3,33.3,8.6,30.9,1.2,29.3C-6.3,27.7,-12.6,26.8,-16.1,23.2C-19.7,19.6,-20.5,13.3,-24.1,6.7C-27.8,0.2,-34.3,-6.5,-34.1,-12.4C-34,-18.2,-27.2,-23.1,-20.4,-27C-13.6,-30.9,-6.8,-33.8,-2.7,-30.1C1.4,-26.3,2.7,-16,8,-11.6Z" width="100%" height="100%" transform="translate(50 50)" stroke-width="1" style="transition: all 0.3s ease 0s;" stroke="url(#sw-gradient)"></path>
              </svg>