<!--?xml version="1.0" standalone="no"?-->
              <svg id="sw-js-blob-svg" viewBox="0 0 100 100" xmlns="http://www.w3.org/2000/svg" version="1.1">
                    <defs> 
                        <linearGradient id="sw-gradient" x1="0" x2="1" y1="1" y2="0">
                            <stop id="stop1" stop-color="rgba(20, 184, 166, 1)" offset="0%"></stop>
                            <stop id="stop2" stop-color="rgba(6, 182, 212, 1)" offset="100%"></stop>
                        </linearGradient>
                    </defs>
                <path fill="url(#sw-gradient)" d="M21.2,-31.7C26.5,-25.3,29.2,-17.8,31.4,-10.3C33.7,-2.9,35.5,4.6,33.8,11.3C32,18,26.8,23.8,20.6,26.7C14.3,29.6,7.2,29.7,-0.4,30.3C-8.1,30.9,-16.1,32.1,-23.6,29.6C-31.1,27.1,-38,20.8,-37.9,14C-37.7,7.2,-30.5,-0.2,-26.1,-6.9C-21.7,-13.5,-20.1,-19.5,-16.2,-26.3C-12.3,-33.2,-6.2,-41,0.9,-42.2C7.9,-43.5,15.9,-38.1,21.2,-31.7Z" width="100%" height="100%" transform="translate(50 50)" stroke-width="0" style="transition: all 0.3s ease 0s;" stroke="url(#sw-gradient)"></path>
              </svg>