<!--?xml version="1.0" standalone="no"?-->
              <svg id="sw-js-blob-svg" viewBox="0 0 100 100" xmlns="http://www.w3.org/2000/svg" version="1.1">
                    <defs> 
                        <linearGradient id="sw-gradient" x1="0" x2="1" y1="1" y2="0">
                            <stop id="stop1" stop-color="rgba(20, 184, 166, 1)" offset="0%"></stop>
                            <stop id="stop2" stop-color="rgba(6, 182, 212, 1)" offset="100%"></stop>
                        </linearGradient>
                    </defs>
                <path fill="url(#sw-gradient)" d="M14.4,-23.1C15.5,-18.9,11.2,-10.6,15.1,-3.7C18.9,3.1,30.8,8.5,32.7,13.1C34.6,17.7,26.5,21.5,19.4,23.8C12.3,26.1,6.1,26.8,-0.4,27.3C-6.9,27.8,-13.7,28,-16,24.2C-18.3,20.4,-16.1,12.4,-18.2,5.9C-20.3,-0.6,-26.6,-5.6,-27.4,-10.7C-28.3,-15.8,-23.6,-21,-18.1,-23.8C-12.7,-26.5,-6.3,-26.9,0.1,-27.1C6.6,-27.3,13.2,-27.3,14.4,-23.1Z" width="100%" height="100%" transform="translate(50 50)" stroke-width="0" style="transition: all 0.3s ease 0s;" stroke="url(#sw-gradient)"></path>
              </svg>