<!--?xml version="1.0" standalone="no"?-->
              <svg id="sw-js-blob-svg" viewBox="0 0 100 100" xmlns="http://www.w3.org/2000/svg" version="1.1">
                    <defs> 
                        <linearGradient id="sw-gradient" x1="0" x2="1" y1="1" y2="0">
                            <stop id="stop1" stop-color="rgba(20, 184, 166, 1)" offset="0%"></stop>
                            <stop id="stop2" stop-color="rgba(6, 182, 212, 1)" offset="100%"></stop>
                        </linearGradient>
                    </defs>
                <path fill="url(#sw-gradient)" d="M18.3,-30.9C23.8,-28.5,28.5,-23.8,30.4,-18.3C32.3,-12.8,31.5,-6.4,32.1,0.4C32.7,7.1,34.8,14.2,30.5,15.6C26.2,16.9,15.5,12.6,9.3,17.4C3.2,22.2,1.6,36.1,-1.8,39.2C-5.2,42.3,-10.4,34.6,-11.7,27C-12.9,19.4,-10.3,11.9,-14.2,7.4C-18.2,2.9,-28.7,1.5,-33.9,-3C-39,-7.4,-38.7,-14.8,-32.5,-15.4C-26.3,-16.1,-14.3,-10.1,-8,-12C-1.6,-13.8,-0.8,-23.6,2.8,-28.5C6.4,-33.3,12.8,-33.2,18.3,-30.9Z" width="100%" height="100%" transform="translate(50 50)" stroke-width="0" style="transition: all 0.3s ease 0s;" stroke="url(#sw-gradient)"></path>
              </svg>